<?xml version="1.0" encoding="UTF-8" standalone="no"?>
<svg
   xmlns:dc="http://purl.org/dc/elements/1.1/"
   xmlns:cc="http://creativecommons.org/ns#"
   xmlns:rdf="http://www.w3.org/1999/02/22-rdf-syntax-ns#"
   xmlns:svg="http://www.w3.org/2000/svg"
   xmlns="http://www.w3.org/2000/svg"
   viewBox="0 0 257.33334 257.33334"
   height="100"
   width="100"
   xml:space="preserve"
   id="svg2"
   version="1.1"><metadata
     id="metadata8"><rdf:RDF><cc:Work
         rdf:about=""><dc:format>image/svg+xml</dc:format><dc:type
           rdf:resource="http://purl.org/dc/dcmitype/StillImage" /></cc:Work></rdf:RDF></metadata><defs
     id="defs6" /><g
     transform="matrix(1.3333333,0,0,-1.3333333,0,257.33333)"
     id="g10"><g
       transform="scale(0.1)"
       id="g12"><path
         id="path14"
         style="fill:none;fill-opacity:1;fill-rule:evenodd;stroke:none"
         d="M 0,1927.56 H 1927.56 V 0 H 0 v 1927.56" /><path
         id="path16"
         style="fill:#A06D61;fill-opacity:1;fill-rule:nonzero;stroke:none"
         d="m 1807.61,896.473 h -8.95 v -25.817 h -4.26 v 25.817 h -8.95 v 3.097 h 22.16 v -3.097 z m 20.1,-18.258 h 0.13 l 8.05,21.355 h 6.63 v -28.914 h -4.25 v 24.117 h -0.13 l -9.01,-24.117 h -2.94 l -8.93,24.117 h -0.16 v -24.117 h -4.27 v 28.914 h 6.71 l 8.17,-21.355" /><path
         id="path18"
         style="fill:#A06D61;fill-opacity:1;fill-rule:nonzero;stroke:none"
         d="m 940.531,925.43 c -1.648,-3.739 -10.394,-20.61 -32.316,-20.61 -25.383,0 -35.254,21.02 -35.254,36.692 0,25.851 17.394,49.086 43.051,49.086 27.566,0 34.152,-20.535 34.746,-24.266 h 40.648 c 2.403,15.137 -9.625,61.528 -73.843,61.528 -47.047,0 -84.563,-37.493 -84.563,-87.637 0,-41.032 25.645,-72.657 73.195,-72.657 59.176,0 75.153,46.43 77.207,57.864 h -42.871" /><path
         id="path20"
         style="fill:#A06D61;fill-opacity:1;fill-rule:nonzero;stroke:none"
         d="m 629.105,914.098 c 0,2.375 0.625,6.851 2.684,16.281 2.098,9.418 30.734,141.501 30.734,141.501 H 624.438 L 592.84,926.219 c -1.34,-6.063 -1.914,-12.192 -1.914,-17.52 0,-31.906 24.691,-41.297 44.551,-41.297 7.07,0 13.625,1.118 15.207,1.387 0.699,3.164 6.66,30.617 6.914,31.836 -0.852,-0.129 -4.993,-0.422 -9.887,-0.422 -14.152,0 -18.606,6.02 -18.606,13.895" /><path
         id="path22"
         style="fill:#A06D61;fill-opacity:1;fill-rule:nonzero;stroke:none"
         d="m 1169.98,1027.39 h -53.12 l -68.21,-61.48 22.97,106.27 h -38.28 L 989.711,870.625 h 38.379 l 10.58,48.996 23.6,18.723 32.59,-67.719 h 42.66 l -46.23,90.695 78.69,66.07" /><path
         id="path24"
         style="fill:#A06D61;fill-opacity:1;fill-rule:nonzero;stroke:none"
         d="m 419.758,932.891 c 3.219,14.433 30.199,139.259 30.199,139.259 0,0 46.555,0 72.621,0 52.652,0 65.586,-29.25 65.586,-47.02 0,-39.282 -37.113,-49.712 -41.668,-51.107 4.207,-1.378 28.332,-10.949 28.332,-41.808 0,-33.52 -30.945,-61.621 -78.941,-61.621 0,0 -17.196,0 -21.879,0 -40.281,0 -61.945,27.594 -54.25,62.297 z m 113.644,2.492 c 0,9.484 -6.117,21.472 -33.23,21.472 H 465 l -10.535,-48.757 h 39.867 c 25.762,0 39.07,11.629 39.07,27.285 z m 13.02,81.207 c 0,9.84 -7.422,18.26 -25.762,18.26 h -38.793 l -8.82,-40.709 h 40.465 c 21.797,0 32.91,10.499 32.91,22.449" /><path
         id="path26"
         style="fill:#A06D61;fill-opacity:1;fill-rule:nonzero;stroke:none"
         d="m 1152.52,932.891 c 3.23,14.433 30.21,139.259 30.21,139.259 0,0 46.56,0 72.59,0 52.66,0 65.64,-29.25 65.64,-47.02 0,-39.282 -37.11,-49.712 -41.69,-51.107 4.2,-1.378 28.35,-10.949 28.35,-41.808 0,-33.52 -30.94,-61.621 -78.93,-61.621 0,0 -17.21,0 -21.91,0 -40.24,0 -61.89,27.594 -54.26,62.297 z m 113.65,2.492 c 0,9.484 -6.12,21.472 -33.21,21.472 h -35.16 l -10.53,-48.757 h 39.82 c 25.8,0 39.08,11.629 39.08,27.285 z m 13.04,81.207 c 0,9.84 -7.44,18.26 -25.74,18.26 h -38.83 l -8.76,-40.709 h 40.42 c 21.8,0 32.91,10.499 32.91,22.449" /><path
         id="path28"
         style="fill:#A06D61;fill-opacity:1;fill-rule:nonzero;stroke:none"
         d="m 1584.25,1027.31 c -40.61,0 -68.2,-24.07 -77.57,-69.205 -3.94,-19.425 -18.73,-87.64 -18.73,-87.64 h 38.09 c 0,0 14,64.871 18.44,85.289 5.79,26.648 19.93,35.769 38.93,35.769 6.13,0 10.03,-0.714 12.07,-1.043 1.07,5.438 6.34,29.52 7.6,35.43 -4.08,0.52 -10.59,1.4 -18.83,1.4" /><path
         id="path30"
         style="fill:#A06D61;fill-opacity:1;fill-rule:nonzero;stroke:none"
         d="m 1713.83,810.492 127.74,216.818 h -41.11 l -58.7,-102.04 -13.76,102.14 c 0,0 -20.87,0 -43.96,0 -50.34,0 -76.46,-23.07 -85.74,-67.148 -4.64,-21.961 -19.39,-89.797 -19.39,-89.797 h 38.07 c 0,0 13.97,64.398 19.57,90.336 5.33,25.234 24.05,33.008 44.22,28.695 l 8.04,37.024 c 5.9,-35.161 24.07,-147.489 24.07,-147.489 l -39.84,-68.539 h 40.79" /><path
         id="path32"
         style="fill:#A06D61;fill-opacity:1;fill-rule:nonzero;stroke:none"
         d="m 739.035,937.398 c 8.403,1.215 32.969,4.969 36.27,5.422 -0.629,-2.597 -1.575,-6.738 -2.325,-9.843 -4.437,-18.95 -23.742,-31.141 -45.035,-31.141 -13.57,0 -21.547,7.316 -21.547,16.039 0,7.125 6.602,15.621 32.637,19.523 z m -14.215,40.817 c 0.922,1.519 10.719,16.66 35.121,16.66 15.168,0 22.942,-5.574 22.942,-12.246 0,-9.477 -15.293,-11.961 -41.735,-15.758 -45.531,-6.512 -74.293,-20.656 -74.293,-53.504 0,-23.293 19.317,-45.965 53.684,-45.965 28.586,0 43.484,17.196 44.793,18.508 0.117,-4.14 0.664,-10.324 1.078,-15.285 3.192,0 29.567,0 39.406,0 -1.433,6.793 -4.191,19.805 0.461,40.641 2.489,11.039 9.461,42.648 13.008,60.101 6.695,32.973 -11.402,56.323 -57.867,56.323 -59.625,0 -76.785,-42.909 -79.609,-49.475 h 43.011" /><path
         id="path34"
         style="fill:#A06D61;fill-opacity:1;fill-rule:nonzero;stroke:none"
         d="m 1431.91,917.52 c -1.35,-3.063 -10.57,-15.977 -31.32,-15.977 -29.8,0 -36.59,25.254 -35.85,32.211 15.86,0 107.77,0 116.09,0 0.63,2.859 3.24,13.184 3.24,23.812 0,36.68 -24.87,70.294 -75.1,70.294 -45.95,0 -82.76,-38.587 -82.76,-84.489 0,-44.34 26.64,-75.805 73.77,-75.805 58.23,0 73.91,45.653 75.38,49.954 -10.32,0 -43.45,0 -43.45,0 z m -22.53,75.539 c 25.66,0 35.45,-15.649 34.41,-28.204 -14.75,0 -58.55,0 -73.37,0 1.92,7.997 14.16,28.204 38.96,28.204" /><path
         id="path36"
         style="fill:#A06D61;fill-opacity:1;fill-rule:nonzero;stroke:none"
         d="m 178.898,1095.13 c 0,9.7 -5.949,21.94 -30.812,21.94 -10.25,0 -38.348,0 -38.348,0 L 98.9063,1066.7 c 0,0 20.6717,0 39.8667,0 31.223,0 40.125,14.75 40.125,28.43" /><path
         id="path38"
         style="fill:#A06D61;fill-opacity:1;fill-rule:nonzero;stroke:none"
         d="m 282.063,1095.13 c 0,9.7 -5.915,21.94 -30.801,21.94 -10.188,0 -38.282,0 -38.282,0 l -10.882,-50.37 c 0,0 20.672,0 39.882,0 31.219,0 40.083,14.75 40.083,28.43" /><path
         id="path40"
         style="fill:#A06D61;fill-opacity:1;fill-rule:nonzero;stroke:none"
         d="m 165.059,1019.34 c 0,9.69 -5.938,21.88 -30.825,21.88 -10.191,0 -38.2965,0 -38.2965,0 L 85.0391,990.926 c 0,0 20.7069,0 39.9649,0 31.148,0 40.055,14.744 40.055,28.414" /><path
         id="path42"
         style="fill:#A06D61;fill-opacity:1;fill-rule:nonzero;stroke:none"
         d="m 268.234,1019.34 c 0,9.69 -5.925,21.88 -30.769,21.88 -10.254,0 -38.336,0 -38.336,0 L 188.25,990.926 c 0,0 20.695,0 39.887,0 31.211,0 40.097,14.744 40.097,28.414" /><path
         id="path44"
         style="fill:#A06D61;fill-opacity:1;fill-rule:nonzero;stroke:none"
         d="m 376.191,1050.07 c 0,9.69 -5.894,21.94 -30.773,21.94 -10.25,0 -38.313,0 -38.313,0 l -10.906,-50.38 c 0,0 20.692,0 39.903,0 31.218,0 40.089,14.76 40.089,28.44" /><path
         id="path46"
         style="fill:#A06D61;fill-opacity:1;fill-rule:nonzero;stroke:none"
         d="m 361.328,971.137 c 0,9.66 -5.922,21.937 -30.805,21.937 -10.199,0 -38.312,0 -38.312,0 l -10.863,-50.351 c 0,0 20.711,0 39.91,0 31.183,0 40.07,14.722 40.07,28.414" /><path
         id="path48"
         style="fill:#A06D61;fill-opacity:1;fill-rule:nonzero;stroke:none"
         d="m 253.387,940.426 c 0,9.668 -5.887,21.929 -30.735,21.929 -10.254,0 -38.347,0 -38.347,0 l -10.883,-50.386 c 0,0 20.73,0 39.976,0 31.145,0 39.989,14.722 39.989,28.457" /></g></g></svg>