<?xml version="1.0" encoding="UTF-8" standalone="no"?>
<svg
   xmlns:dc="http://purl.org/dc/elements/1.1/"
   xmlns:cc="http://creativecommons.org/ns#"
   xmlns:rdf="http://www.w3.org/1999/02/22-rdf-syntax-ns#"
   xmlns:svg="http://www.w3.org/2000/svg"
   xmlns="http://www.w3.org/2000/svg"
   viewBox="0 0 258.66666 258.66666"
   height="100"
   width="100"
   xml:space="preserve"
   id="svg2"
   version="1.1"><metadata
     id="metadata8"><rdf:RDF><cc:Work
         rdf:about=""><dc:format>image/svg+xml</dc:format><dc:type
           rdf:resource="http://purl.org/dc/dcmitype/StillImage" /></cc:Work></rdf:RDF></metadata><defs
     id="defs6" /><g
     transform="matrix(1.3333333,0,0,-1.3333333,0,258.66667)"
     id="g10"><g
       transform="scale(0.1)"
       id="g12"><path
         id="path14"
         style="fill:none;fill-opacity:1;fill-rule:evenodd;stroke:none"
         d="M 2.59766,1933.23 H 1930.16 V 5.66797 H 2.59766 V 1933.23" /><path
         id="path16"
         style="fill:#A06D61;fill-opacity:1;fill-rule:evenodd;stroke:none"
         d="m 1835.34,765.059 c 2.21,-0.942 4.11,-2.364 5.64,-4.411 3.77,-7.085 4.14,-9.293 4.14,-11.652 0,-2.992 -0.71,-5.988 -2.11,-8.824 -1.42,-2.836 -3.73,-4.879 -6.97,-5.981 2.72,-1.261 4.62,-2.839 5.74,-5.043 1.14,-2.046 1.71,-5.195 1.71,-9.609 0,-7.086 -0.65,-14.019 -0.45,-14.961 l -11.95,-0.156 0.14,8.664 -0.07,5.824 c -0.05,3.938 -0.75,6.613 -2.06,8.035 -1.31,1.258 -3.76,1.887 -7.37,1.887 h -12.64 v -24.41 h -11.96 v 62.215 h 28.75 c 4.09,0 7.26,-0.629 9.46,-1.578 z m -26.25,-9.137 V 739.23 h 13.87 c 2.77,0 4.83,0.313 6.2,0.942 2.44,1.101 3.66,3.465 3.66,6.933 0,3.778 -1.17,6.301 -3.53,7.715 -1.33,0.629 -3.31,1.102 -5.96,1.102 z m -41.24,10.715 h 17.61 v -62.215 h -11.4 v 42.051 l 0.08,10.238 -11.1,-52.289 h -11.88 l -11.02,52.289 0.09,-10.238 v -42.051 h -11.41 v 62.215 h 17.8 l 10.67,-48.828 10.56,48.828" /><path
         id="path18"
         style="fill:#A06D61;fill-opacity:1;fill-rule:evenodd;stroke:none"
         d="m 748.789,759.547 c -64.062,41.266 -151.012,48.512 -291.23,9.605 -149.485,-35.125 -199.325,-57.64 -264.778,-12.441 -25.148,22.211 -34.156,57.965 -27.429,109.469 15.617,83.953 57.812,164.75 132.757,254.37 41.836,46.62 80.637,86.63 131.887,102.69 39.27,10.08 35.598,-20.79 30.848,-25.2 -5.016,0 -13.434,-0.79 -19.946,-5.04 -5.285,-4.09 -19.789,-17.33 -20.566,-35.12 -1.121,-27.25 27.078,-21.58 39.238,-6.62 13.102,16.85 32.477,49.14 17.243,79.22 -6.391,10.72 -17.426,18.12 -31.129,20.64 -46.922,2.68 -90.621,-19.69 -130.95,-44.42 C 226.531,1145.43 155.977,1060.54 116.051,967.609 93.0391,911.539 72.2188,831.211 103.426,765.848 c 24.133,-45.36 74.242,-69.461 134.027,-64.422 41.938,4.414 92.633,17.961 126.735,26.148 34.105,8.192 208.664,68.199 266.019,-36.23 0,0 19.07,37.015 66.731,37.804 39.187,3.622 95.714,-11.339 136.882,-41.578 -13.707,20.633 -52.59,51.032 -85.031,71.977" /><path
         id="path20"
         style="fill:#A06D61;fill-opacity:1;fill-rule:evenodd;stroke:none"
         d="m 475.355,1110 c -32.644,21.41 -98.265,-19.54 -150.828,-89.78 -48.054,-63.005 -68.808,-136.243 -46.226,-170.111 33.601,-39.843 95.969,18.114 122.492,49.145 l 3.418,3.621 c 18.039,19.371 31.977,42.688 45.461,65.051 0,0 12.398,20.476 12.988,21.422 7.664,1.414 16.887,3.621 27.289,6.613 -0.148,-0.469 -39.789,-67.094 -35.746,-100.172 1.262,-10.082 0.301,-46.937 36.285,-58.121 47.957,-8.031 86.254,29.141 120.039,62.215 0,0 5.754,5.515 9.012,8.66 -0.824,-3.305 -1.894,-7.711 -1.894,-7.711 -14.043,-48.828 4.878,-59.07 16.718,-62.844 35.782,-10.402 78.532,41.578 78.664,41.578 -1.109,-16.382 -4.351,-29.925 12.911,-40.793 16.292,-5.828 32.781,2.832 45.312,11.18 45.141,31.817 81.508,81.902 110.887,124.43 h -18.742 c -0.219,-0.313 -46.231,-66.469 -76.11,-80.957 -0.047,0 -5.48,-2.68 -8.621,-0.469 -3.875,3.305 -2.348,10.707 0.051,15.586 0.156,0.32 115.359,200.667 115.359,200.667 H 839.68 c 0,0 -5.942,-10.08 -6.43,-10.71 -0.367,0.31 -1.238,1.73 -1.844,2.52 -33.703,46.62 -110.027,-25.2 -167.484,-108.364 -22.125,-31.976 -50.289,-68.043 -79.496,-94.031 0,0 -43.262,-39.691 -61.75,-11.184 -6.758,11.969 -4.68,29.454 -0.871,40.95 21.523,61.269 58.613,116.869 100.82,150.419 11.91,9.29 24.859,11.97 31.285,8.03 6.121,-3.62 7.113,-12.6 3.238,-18.74 -9.828,0.31 -17.703,-2.68 -24.105,-9.3 -12.617,-13.22 -16.996,-25.98 -12.984,-37.95 19.476,-27.725 58.324,27.09 56.445,60.48 -0.672,11.97 -7.063,23.31 -16.59,28.83 -14.207,8.5 -35.883,6.29 -49.906,-0.48 -18.774,-7.09 -48.496,-31.81 -65.84,-51.03 -21.844,-24.1 -59.301,-50.88 -71.012,-47.88 3.844,10.24 35.485,74.97 2.199,99.23 z m 262.266,-95.77 c 10.582,14.65 41.383,53.87 48.895,60.48 25.25,22.22 35.343,12.45 36.218,5.52 -23.57,-42.21 -51.386,-90.57 -77.539,-134.039 0.055,0.157 -8.183,-12.441 -8.183,-12.441 -11.555,-17.641 -23.184,-32.762 -42.157,-43.316 -2.699,-0.786 -7.164,-1.102 -10.128,1.101 -3.579,2.363 -4.985,6.301 -4.579,10.399 1.137,13.546 14.926,54.968 57.473,112.296 z M 441.688,988.875 c 0,0 -0.469,-1.422 -0.708,-1.891 -0.062,0 -23.714,-38.586 -23.714,-38.586 -14.278,-19.058 -32.106,-43 -54.383,-54.5 -6.61,-2.203 -15.735,-3.621 -20.387,2.204 -9.863,11.812 -4.781,28.195 -0.652,41.421 l 1.461,4.731 c 11.84,32.129 30.633,60.476 48.914,86.786 0.234,0.16 0.738,0.31 0.922,0.31 0.05,-0.15 0.121,-0.15 0.156,-0.47 11.473,-22.05 32.992,-32.286 49.078,-37.013 0.102,0 0.203,-0.156 0.203,-0.476 0,-0.465 -0.265,-1.102 -0.89,-2.516 z m 22.41,45.515 c -0.098,-0.31 -10.532,-24.25 -10.532,-24.25 -1.511,-1.26 -3.894,-0.64 -6.628,0 l -4.68,0.79 c -14.711,4.56 -25.801,14.33 -29.219,25.98 -4.719,22.68 14.656,40.48 23.199,46.94 8.184,5.67 20.918,8.66 28.317,2.83 4.562,-5.35 6.289,-12.28 6.289,-19.84 0,-10.24 -3.156,-21.74 -6.746,-32.45" /><path
         id="path22"
         style="fill:#A06D61;fill-opacity:1;fill-rule:evenodd;stroke:none"
         d="m 1151.81,961.313 c -5.25,11.335 -17.7,18.582 -30.97,17.796 -43.09,-3.937 -85.25,-39.379 -107.37,-90.25 -11.61,-26.148 -17.954,-47.726 -22.115,-82.058 13.405,15.433 40.735,40.793 71.745,54.652 0,0 4.23,32.918 25.75,62.215 8.14,12.125 24.44,31.66 42.74,26.465 15.99,-5.363 10.37,-49.621 -10.88,-92.457 -15.72,-31.504 -39.78,-63.008 -64.13,-84.742 -21.53,-18.27 -53.37,-40.321 -81.228,-23.309 -17.547,10.391 -26.5,32.129 -24.61,60.164 8.387,79.543 44.59,147.27 96.408,224.441 53.42,71.67 112.31,145.22 191.65,184.45 16.18,8.19 31.17,10.07 44.12,5.03 0,0 -74.48,-40.94 -109.97,-116.71 -9.03,-19.21 -21.59,-45.2 -8.95,-68.2 6.61,-11.97 18.36,-12.91 27.8,-12.28 43.51,10.08 71.63,50.72 94.59,87.88 13.32,28.2 25.16,56.23 25.16,87.42 0,3.78 -0.19,8.82 -0.51,12.6 20.78,11.03 63.41,-8.5 63.41,-8.5 33.31,-11.03 104.25,-65.37 128.18,-75.76 11.67,13.54 30.84,34.02 41.65,44.25 l -15.64,9.61 c -25.03,15.28 -51.48,29.77 -77.53,44.11 -59.13,32.28 -107.28,20.94 -131.77,12.12 -9.63,-3.46 -18.43,-6.46 -18.43,-6.46 -18.19,19.85 -48,17.96 -69.97,12.6 -79.01,-22.68 -152.37,-77.96 -231.03,-173.88 C 942.09,997.379 906.223,932.484 887.102,868.383 872.367,825.227 867.887,761.75 903.855,724.109 c 30.583,-31.972 71.129,-25.043 99.765,-13.546 62.05,30.554 117.81,96.394 145.59,172.156 6.69,22.519 14.14,54.34 2.6,78.594 z m 142.65,237.357 c -8.21,-94.19 -81.42,-149.47 -99.54,-153.88 -10.97,-2.2 -29.71,2.67 -12.98,42.21 24.62,53.24 66.66,98.44 111.78,121.59 1.09,-3.94 1.06,-6.45 0.74,-9.92" /><path
         id="path24"
         style="fill:#A06D61;fill-opacity:1;fill-rule:evenodd;stroke:none"
         d="m 1728.77,1186.7 c -39.39,-22.37 -80.21,-36.85 -129.63,-31.81 -13.7,-15.44 -27.03,-31.35 -39.33,-47.73 69.37,-17.64 142.91,21.58 183.91,58.91 43.39,37.64 65.64,85.05 65.64,85.05 0,0 -32.53,-37.17 -80.59,-64.42" /><path
         id="path26"
         style="fill:#A06D61;fill-opacity:1;fill-rule:evenodd;stroke:none"
         d="m 984.496,1109.21 h -51.668 l -29.137,-49.3 h 51.649 l 29.156,49.3" /><path
         id="path28"
         style="fill:#A06D61;fill-opacity:1;fill-rule:evenodd;stroke:none"
         d="m 1598.93,754.664 c -5.55,-3.781 -13.36,-0.629 -10.43,8.031 7.26,22.055 36.16,67.414 36.16,67.414 l 80.47,143.168 h -55.12 c -2.62,-4.722 -8.22,-14.488 -8.22,-14.488 -2.55,4.254 -10.18,13.547 -13.32,15.594 -13.47,8.504 -33.24,4.41 -46.87,-3.305 -59.26,-34.656 -102.51,-103.168 -136.62,-156.562 0,0 -35.89,-59.379 -55.82,-63.789 -15.55,-1.258 -13.96,19.691 -13.28,24.57 6.01,35.277 19.99,68.832 34.07,99.23 28.61,19.844 61.29,45.832 90.98,74.34 64.43,61.583 118.75,131.363 126.69,146.953 0,0 -8.59,-1.73 -18.74,-2.05 -49.57,-69.14 -151.01,-169.629 -181.76,-184.594 13.62,32.762 101.64,189.164 176.54,263.984 l 11.79,11.34 c 18.22,17.79 37.11,36.07 51.82,39.06 1.56,0.15 3.56,0 5.28,-3.63 0.66,-13.86 -4.49,-24.09 -10.41,-35.75 l -8.29,-17.01 c 0,0 11.74,2.21 19.46,4.73 8.96,16.85 18.87,35.75 15.21,58.27 -1.22,7.25 -6.46,12.76 -13.32,14.02 -22.34,4.25 -46.7,-12.28 -66.29,-25.67 l -0.79,-0.48 c -100.71,-78.91 -185.78,-192.63 -260.13,-347.927 -5.4,-4.093 -26.22,-8.972 -29.76,-6.613 7.35,15.117 16.59,35.438 21.22,57.488 0.81,6.297 1.55,12.762 1.55,19.059 0,13.547 -3.26,26.305 -15.4,35.125 -14.24,7.086 -31.84,3.777 -43.7,-1.574 -53.16,-22.051 -92.88,-76.547 -121.55,-121.438 -15.42,-28.508 -30.79,-59.062 -35.05,-94.031 -3,-27.406 3.11,-45.043 18.69,-53.867 16.02,-8.188 36.19,0.316 44.1,4.41 53.85,28.351 91.48,85.211 121.14,137.191 1.18,0.153 17.38,0.629 29.62,3.778 0.17,0 0.23,0 0.51,-0.161 -0.71,-2.359 -7.04,-21.257 -7.04,-21.257 -18.8,-55.133 -27.49,-92.618 -9.73,-114.825 25.37,-31.343 67.37,1.102 101.54,43.946 -7.33,-51.348 19.28,-59.379 39.56,-55.442 23.3,6.301 49.27,31.184 61.31,43.942 -3.86,-14.961 -2.8,-41.739 18.39,-44.418 14.52,-2.676 25.4,4.722 37.99,11.5 45.13,24.574 99.14,106.949 113.17,129.629 h -18.39 c -19.94,-29.457 -45.31,-69.149 -77.23,-87.891 z m -405.07,5.984 c -2.86,4.254 -3.81,9.141 -3.91,14.172 -0.55,30.875 32.68,85.848 56.13,116.559 0.06,0 0.06,0 0.06,0 9.82,-22.836 32.08,-35.598 45.52,-41.426 -16.69,-37.172 -73.93,-117.023 -97.8,-89.305 z m 107.21,105.688 c -1.59,-1.102 -29.66,8.348 -35.07,34.332 -4.6,22.371 10.8,39.855 25.71,48.672 6.39,5.039 16.04,6.773 23.1,4.254 6.56,-4.41 8.34,-12.285 8.34,-20.793 0,-5.196 -0.69,-10.555 -1.29,-15.434 0,0 -0.12,-0.945 -0.14,-1.101 -4.68,-17.485 -11.84,-34.653 -20.65,-49.93 z m 225.11,-95.762 c -0.02,0 -5.32,-4.726 -5.32,-4.726 -7.57,-6.774 -15.37,-14.016 -24.76,-10.399 -2.6,0.949 -4.43,4.41 -4.87,7.09 -0.43,19.375 8.31,37.332 16.76,54.813 l 2.16,4.566 c 24.35,40.637 52.63,88.52 94.18,121.754 7,5.039 14.6,9.293 22.62,5.984 1.84,-1.734 3.99,-4.726 3.99,-7.718 0,-0.946 -0.84,-3.465 -1.33,-4.25 -11.61,-18.743 -22.66,-38.434 -33.4,-57.333 -21,-37.328 -42.79,-75.917 -70.03,-109.781" /></g></g></svg>