<?xml version="1.0" ?><!DOCTYPE svg  PUBLIC '-//W3C//DTD SVG 1.1//EN'  'http://www.w3.org/Graphics/SVG/1.1/DTD/svg11.dtd'>
<svg height="120" width="120" style="shape-rendering:geometricPrecision; text-rendering:geometricPrecision; image-rendering:optimizeQuality; fill-rule:evenodd; clip-rule:evenodd" version="1.1" viewBox="0 0 826772 826772" xml:space="preserve" 
    xmlns="http://www.w3.org/2000/svg" 
    xmlns:xlink="http://www.w3.org/1999/xlink">
    <defs>
        <style type="text/css">
            <![CDATA[
    .fil0 {fill:#485C4C}
    .fil1 {fill:#2E373C;fill-rule:nonzero}
    .fil2 {fill:white;fill-rule:nonzero}
   ]]>
        </style>
    </defs>
    <g id="Layer_x0020_1">
        <polygon class="fil0" points="0,0 826772,0 826772,826772 0,826772 "/>
        <path class="fil1" d="M551211 190528l-273433 0c-47497,0 -86126,38629 -86126,86128l0 91000 0 182460c0,47499 38629,86128 86126,86128l273433 0c47498,0 86156,-38629 86156,-86128l0 -182460 0 -91000c0,-47499 -38658,-86128 -86156,-86128zm24722 51392l0 0 9835 -61 0 9836 0 65699 -75266 252 -268 -75534 65699 -192zm-225027 125736l0 0c14278,-19761 37424,-32702 63604,-32702 26177,0 49325,12941 63603,32702 9286,12881 14858,28675 14858,45730 0,43235 -35226,78432 -78461,78432 -43264,0 -78461,-35197 -78461,-78432 0,-17055 5571,-32849 14857,-45730zm243048 182460l0 0c0,23564 -19180,42716 -42743,42716l-273433 0c-23562,0 -42714,-19152 -42714,-42716l0 -182460 66530 0c-5748,14128 -8959,29565 -8959,45730 0,67199 54676,121873 121875,121873 67199,0 121873,-54674 121873,-121873 0,-16165 -3254,-31602 -8989,-45730l66560 0 0 182460z"/>
        <path class="fil2" d="M537206 190528l-273433 0c-47497,0 -86126,38629 -86126,86128l0 91000 0 182460c0,47499 38629,86128 86126,86128l273433 0c47498,0 86157,-38629 86157,-86128l0 -182460 0 -91000c0,-47499 -38659,-86128 -86157,-86128zm24722 51392l0 0 9835 -61 0 9836 0 65699 -75266 252 -268 -75534 65699 -192zm-225027 125736l0 0c14279,-19761 37425,-32702 63604,-32702 26178,0 49325,12941 63604,32702 9285,12881 14857,28675 14857,45730 0,43235 -35226,78432 -78461,78432 -43264,0 -78461,-35197 -78461,-78432 0,-17055 5572,-32849 14857,-45730zm243048 182460l0 0c0,23564 -19179,42716 -42743,42716l-273433 0c-23562,0 -42714,-19152 -42714,-42716l0 -182460 66530 0c-5748,14128 -8959,29565 -8959,45730 0,67199 54676,121873 121875,121873 67199,0 121873,-54674 121873,-121873 0,-16165 -3254,-31602 -8989,-45730l66560 0 0 182460z"/>
    </g>
</svg>