<?xml version="1.0" ?><!DOCTYPE svg  PUBLIC '-//W3C//DTD SVG 1.1//EN'  'http://www.w3.org/Graphics/SVG/1.1/DTD/svg11.dtd'>
<svg height="120" style="shape-rendering:geometricPrecision; text-rendering:geometricPrecision; image-rendering:optimizeQuality; fill-rule:evenodd; clip-rule:evenodd" version="1.1" viewBox="0 0 826772 826772" width="120" xml:space="preserve" 
    xmlns="http://www.w3.org/2000/svg" 
    xmlns:xlink="http://www.w3.org/1999/xlink">
    <defs>
        <style type="text/css">
            <![CDATA[
    .fil0 {fill:#485C4C}
    .fil1 {fill:#2E373C;fill-rule:nonzero}
    .fil2 {fill:white;fill-rule:nonzero}
   ]]>
        </style>
    </defs>
    <g id="Layer_x0020_1">
        <polygon class="fil0" points="0,0 826772,0 826772,826772 0,826772 "/>
        <path class="fil1" d="M339413 693276l111957 0c0,0 0,-154538 0,-279890l83090 0 10207 -111957 -88970 0 0 -44763c0,-21813 14537,-26890 24744,-26890 10205,0 62808,0 62808,0l0 -95926 -86488 -354c-96002,0 -117815,71538 -117815,117329l0 50604 -55512 0 0 111957 55979 0c0,126865 0,279890 0,279890z"/>
        <path class="fil2" d="M326625 693276l111957 0c0,0 0,-154538 0,-279890l83090 0 10207 -111957 -88970 0 0 -44763c0,-21813 14537,-26890 24745,-26890 10204,0 62807,0 62807,0l0 -95926 -86487 -354c-96002,0 -117815,71538 -117815,117329l0 50604 -55513 0 0 111957 55979 0c0,126865 0,279890 0,279890z"/>
    </g>
</svg>