<?xml version="1.0" encoding="UTF-8" standalone="no"?>
<svg
   xmlns:dc="http://purl.org/dc/elements/1.1/"
   xmlns:cc="http://creativecommons.org/ns#"
   xmlns:rdf="http://www.w3.org/1999/02/22-rdf-syntax-ns#"
   xmlns:svg="http://www.w3.org/2000/svg"
   xmlns="http://www.w3.org/2000/svg"
   viewBox="0 0 256.98666 256.98666"
   height="100"
   width="100"
   xml:space="preserve"
   id="svg2"
   version="1.1"><metadata
     id="metadata8"><rdf:RDF><cc:Work
         rdf:about=""><dc:format>image/svg+xml</dc:format><dc:type
           rdf:resource="http://purl.org/dc/dcmitype/StillImage" /></cc:Work></rdf:RDF></metadata><defs
     id="defs6" /><g
     transform="matrix(1.3333333,0,0,-1.3333333,0,256.98667)"
     id="g10"><g
       transform="scale(0.1)"
       id="g12"><path
         id="path14"
         style="fill:none;fill-opacity:1;fill-rule:evenodd;stroke:none"
         d="M 0,1927.44 H 1927.44 V 0 H 0 v 1927.44" /><path
         id="path16"
         style="fill:#A06D61;fill-opacity:1;fill-rule:evenodd;stroke:none"
         d="m 1870.35,863.016 c -15.82,0 -28.58,-12.762 -28.58,-28.438 0,-15.824 12.76,-28.59 28.58,-28.59 15.75,0 28.44,12.766 28.44,28.59 0,15.676 -12.69,28.438 -28.44,28.438 v 0 z m 0,-53.594 c -13.88,0 -25.08,11.195 -25.08,25.156 0,13.809 11.2,25.004 25.08,25.004 13.81,0 25.01,-11.195 25.01,-25.004 0,-13.961 -11.2,-25.156 -25.01,-25.156 v 0 0" /><path
         id="path18"
         style="fill:#A06D61;fill-opacity:1;fill-rule:evenodd;stroke:none"
         d="m 1884.98,842.039 c 0,2.688 -1.19,5.527 -3.58,6.871 -2.39,1.414 -5.08,1.567 -7.76,1.567 v 0 h -13.89 v -31.875 h 3.89 v 14.707 h 7.16 l 9.11,-14.707 h 4.63 l -9.63,14.707 v 0 c 5.67,0.148 10.07,2.461 10.07,8.73 v 0 z m -15.37,-5.672 h -5.97 v 11.27 h 9.1 v 0 c 3.96,0 8.29,-0.594 8.29,-5.52 0,-6.496 -6.94,-5.75 -11.42,-5.75 v 0 0" /><path
         id="path20"
         style="fill:#A06D61;fill-opacity:1;fill-rule:evenodd;stroke:none"
         d="m 1703.21,996.121 58.3,62.249 v 0 c 3.38,4.57 5.06,7.77 5.06,10.51 0,4.57 -3.93,6.4 -16.29,6.4 v 0 h -14.71 v 39.3 h 159.22 v -39.3 h -20.93 v 0 c -24.16,0 -28.65,-3.65 -62.35,-46.15 v 0 l -92.24,-99.603 v -60.777 0 c 0,-15.543 7.86,-21.012 30.34,-21.012 v 0 h 34.82 v -37.925 h -223 v 37.925 h 34.83 v 0 c 22.46,0 30.33,5.469 30.33,21.012 v 0 60.777 L 1517.96,1049.7 v 0 c -17.97,21.01 -15.48,25.58 -65.46,25.58 v 0 39.3 h 201.69 v -39.3 h -14.37 v 0 c -14.61,0 -20.79,-2.74 -20.79,-8.22 0,-4.58 4.49,-8.24 7.3,-11.88 v 0 l 54.96,-59.895 v 0 c 6.51,-6.789 14.47,-7.672 21.92,0.836 v 0 0" /><path
         id="path22"
         style="fill:#A06D61;fill-opacity:1;fill-rule:evenodd;stroke:none"
         d="m 350.035,1114.59 h 48.645 v -109.66 h -44.926 v 0 c -3.977,21.92 -17.691,30.45 -30.215,41.95 -22.574,20.74 -71.441,38.01 -112.559,38.01 -53.054,0 -97.835,-16.46 -97.835,-40.66 0,-67.183 303.449,-13.72 303.449,-140.742 0,-66.254 -65,-103.265 -181.731,-103.265 -40.41,0 -101.562,12.543 -137.6403,31.703 -11.3164,6.535 -16.1133,-6.176 -18.2305,-22.106 v 0 H 29.1094 v 113.321 h 45.1133 v 0 c 9.9492,-28.797 23.664,-34.727 36.2693,-46.157 21.879,-20.105 73.957,-34.734 121.719,-34.265 72.008,0.707 96.773,16.449 96.773,39.297 0,22.843 -24.492,28.328 -103.406,40.664 v 0 l -66.992,10.961 v 0 C 82.9766,945.07 27.9258,961.977 27.9258,1022.29 c 0,62.6 69.6445,101.9 179.7422,101.9 46.398,0 85.23,-6.2 122.48,-27.27 10.336,-6.69 20.016,-7.5 19.887,17.67 v 0 0" /><path
         id="path24"
         style="fill:#A06D61;fill-opacity:1;fill-rule:evenodd;stroke:none"
         d="m 1299.47,931 0.96,121.88 v 0 c 0,15.98 -8.31,21.47 -32.09,21.47 v 0 h -27.93 v 37.92 h 177.7 v -37.92 h -23.16 v 0 c -23.79,0 -32.11,-5.49 -32.11,-21.47 v 0 -245.376 l -69.57,0.539 -225.22,213.297 v -154.891 0 c 0,-15.543 8.32,-21.472 32.09,-21.472 v 0 h 30.91 V 807.504 H 946.512 v 37.473 h 30.574 v 0 c 23.774,0 32.094,5.929 32.094,21.472 v 0 186.431 0 c 0,15.98 -8.32,21.47 -32.094,21.47 v 0 h -30.574 v 37.92 H 1106.08 L 1299.47,931 v 0" /><path
         id="path26"
         style="fill:#A06D61;fill-opacity:1;fill-rule:evenodd;stroke:none"
         d="m 704.242,1126.49 c -141.621,0 -230.269,-62.6 -230.269,-163.123 0,-98.703 87.418,-160.836 225.953,-160.836 147.144,0 232.73,61.219 232.73,165.864 0,94.115 -92.359,158.095 -228.414,158.095 v 0 z m -3.219,-284.209 c -78.39,0 -123.457,45.242 -123.457,123.371 0,76.308 47.024,121.548 127.368,121.548 77.078,0 122.144,-46.16 122.144,-124.751 0,-76.761 -45.715,-120.168 -126.055,-120.168 v 0 0" /></g></g></svg>