<?xml version="1.0" encoding="UTF-8" standalone="no"?>
<svg
   xmlns:dc="http://purl.org/dc/elements/1.1/"
   xmlns:cc="http://creativecommons.org/ns#"
   xmlns:rdf="http://www.w3.org/1999/02/22-rdf-syntax-ns#"
   xmlns:svg="http://www.w3.org/2000/svg"
   xmlns="http://www.w3.org/2000/svg"
   viewBox="0 0 257.33334 257.33334"
   height="100"
   width="100"
   xml:space="preserve"
   id="svg2"
   version="1.1"><metadata
     id="metadata8"><rdf:RDF><cc:Work
         rdf:about=""><dc:format>image/svg+xml</dc:format><dc:type
           rdf:resource="http://purl.org/dc/dcmitype/StillImage" /></cc:Work></rdf:RDF></metadata><defs
     id="defs6" /><g
     transform="matrix(1.3333333,0,0,-1.3333333,0,257.33333)"
     id="g10"><g
       transform="scale(0.1)"
       id="g12"><path
         id="path14"
         style="fill:none;fill-opacity:1;fill-rule:evenodd;stroke:none"
         d="M 0,1927.56 H 1927.56 V 0 H 0 v 1927.56" /><path
         id="path16"
         style="fill:#A06D61;fill-opacity:1;fill-rule:nonzero;stroke:none"
         d="M 466.656,841.023 C 434.523,808.887 389.352,790.18 343.902,790.18 c -45.449,0 -90.621,18.707 -122.754,50.843 -32.136,32.137 -50.847,77.313 -50.847,122.758 0,45.449 18.711,90.619 50.847,122.749 32.133,32.14 77.305,50.85 122.754,50.85 45.45,0 90.621,-18.71 122.754,-50.85 32.137,-32.13 50.848,-77.3 50.848,-122.749 0,-45.445 -18.711,-90.621 -50.848,-122.758 z M 472.117,1092 c -33.566,33.56 -80.742,53.11 -128.215,53.11 -47.472,0 -94.648,-19.55 -128.218,-53.11 -33.563,-33.57 -53.11,-80.75 -53.11,-128.219 0,-47.468 19.547,-94.652 53.11,-128.218 33.57,-33.567 80.746,-53.106 128.218,-53.106 47.473,0 94.649,19.539 128.215,53.106 33.567,33.566 53.113,80.75 53.113,128.218 0,47.469 -19.546,94.649 -53.113,128.219" /><path
         id="path18"
         style="fill:#A06D61;fill-opacity:1;fill-rule:nonzero;stroke:none"
         d="M 333.93,969.535 V 958.02 l 9.972,-5.754 9.973,5.754 v 11.515 l -9.973,5.762 -9.972,-5.762" /><path
         id="path20"
         style="fill:#A06D61;fill-opacity:1;fill-rule:nonzero;stroke:none"
         d="m 352.57,997.137 v 24.453 c 0,2.27 -0.933,4.52 -2.543,6.12 -1.601,1.61 -3.855,2.54 -6.125,2.54 -2.269,0 -4.523,-0.93 -6.125,-2.54 -1.609,-1.6 -2.543,-3.85 -2.543,-6.12 v -24.453 l 8.668,-5.008 8.668,5.008" /><path
         id="path22"
         style="fill:#A06D61;fill-opacity:1;fill-rule:nonzero;stroke:none"
         d="m 289.508,942.383 c -1.965,-1.133 -3.449,-3.07 -4.039,-5.266 -0.59,-2.187 -0.266,-4.609 0.871,-6.574 1.129,-1.965 3.062,-3.449 5.254,-4.043 2.195,-0.578 4.617,-0.266 6.582,0.867 l 21.179,12.231 v 10.007 l -8.671,5.004 -21.176,-12.226" /><path
         id="path24"
         style="fill:#A06D61;fill-opacity:1;fill-rule:nonzero;stroke:none"
         d="m 398.297,942.383 v 0 l -21.176,12.226 -8.664,-5.004 v -10.007 l 21.172,-12.231 c 1.965,-1.133 4.387,-1.445 6.582,-0.867 2.191,0.594 4.129,2.078 5.262,4.043 1.129,1.965 1.449,4.387 0.863,6.574 -0.59,2.196 -2.074,4.133 -4.039,5.266" /><path
         id="path26"
         style="fill:#A06D61;fill-opacity:1;fill-rule:nonzero;stroke:none"
         d="m 469.18,889.66 c -0.496,-0.23 -1.071,-0.305 -1.61,-0.203 l -38.086,7.125 c -0.929,0.172 -1.8,0.664 -2.433,1.367 -0.637,0.703 -1.031,1.617 -1.106,2.567 -0.215,2.722 -1.285,5.367 -3.019,7.472 -1.735,2.102 -4.125,3.664 -6.762,4.395 -2.629,0.73 -5.476,0.633 -8.051,-0.274 -4.625,-1.625 -9.597,-2.246 -14.472,-1.793 -4.879,0.454 -9.657,1.977 -13.903,4.426 l -11.281,6.512 V 847.152 H 352.57 v 83.274 l -8.668,5.004 -8.668,-5.004 v -83.274 h -15.879 v 74.102 l -11.289,-6.512 c -4.242,-2.449 -9.023,-3.972 -13.902,-4.426 -4.879,-0.453 -9.848,0.168 -14.473,1.793 -2.574,0.907 -5.421,1.004 -8.054,0.274 -2.633,-0.731 -5.024,-2.293 -6.758,-4.395 -1.734,-2.105 -2.805,-4.75 -3.024,-7.472 -0.07,-0.95 -0.468,-1.864 -1.101,-2.567 -0.633,-0.703 -1.504,-1.195 -2.434,-1.367 l -38.086,-7.125 c -0.539,-0.094 -1.113,-0.027 -1.613,0.203 -0.5,0.231 -0.93,0.617 -1.199,1.09 -0.281,0.48 -0.406,1.043 -0.348,1.598 0.047,0.547 0.27,1.074 0.633,1.496 l 25.211,29.418 c 0.613,0.726 1.473,1.226 2.402,1.422 0.922,0.195 1.918,0.078 2.77,-0.325 2.461,-1.168 5.289,-1.57 7.984,-1.121 2.692,0.457 5.231,1.746 7.18,3.66 1.953,1.907 3.289,4.43 3.793,7.11 0.902,4.816 2.855,9.433 5.687,13.433 2.829,3.993 6.539,7.372 10.778,9.821 l 11.289,6.519 -64.176,37.049 7.938,13.76 72.121,-41.641 8.671,5.004 v 10.012 l -72.121,41.635 7.938,13.76 64.183,-37.06 v 13.04 c 0,4.89 1.067,9.79 3.11,14.24 2.058,4.46 5.074,8.45 8.793,11.65 2.074,1.77 3.586,4.19 4.262,6.83 0.683,2.65 0.531,5.5 -0.426,8.05 -0.953,2.55 -2.707,4.8 -4.961,6.35 -0.778,0.54 -1.375,1.34 -1.668,2.24 -0.293,0.91 -0.281,1.9 0.035,2.8 l 12.875,36.54 c 0.18,0.51 0.527,0.98 0.98,1.3 0.446,0.31 0.993,0.49 1.547,0.49 0.555,0 1.102,-0.18 1.551,-0.49 0.449,-0.32 0.797,-0.79 0.981,-1.3 l 12.875,-36.54 c 0.312,-0.9 0.324,-1.89 0.031,-2.8 -0.297,-0.9 -0.891,-1.7 -1.672,-2.24 -2.246,-1.55 -4.008,-3.8 -4.957,-6.35 -0.957,-2.55 -1.109,-5.4 -0.426,-8.05 0.676,-2.64 2.192,-5.06 4.258,-6.83 3.723,-3.2 6.746,-7.19 8.793,-11.65 2.047,-4.45 3.121,-9.35 3.121,-14.24 v -13.04 l 64.176,37.06 7.937,-13.76 -72.113,-41.635 v -10.012 l 8.664,-5.004 72.121,41.641 7.938,-13.76 -64.176,-37.049 11.289,-6.519 c 4.238,-2.449 7.945,-5.828 10.777,-9.821 2.832,-4 4.785,-8.617 5.688,-13.433 0.5,-2.68 1.844,-5.203 3.793,-7.11 1.945,-1.914 4.492,-3.203 7.179,-3.66 2.696,-0.449 5.524,-0.047 7.985,1.121 0.851,0.403 1.844,0.52 2.769,0.325 0.93,-0.196 1.789,-0.696 2.403,-1.422 l 25.211,-29.418 c 0.363,-0.422 0.582,-0.949 0.636,-1.496 0.055,-0.555 -0.074,-1.118 -0.351,-1.598 -0.27,-0.473 -0.699,-0.859 -1.203,-1.09 z m -16.375,183.03 c -28.504,28.51 -68.582,45.1 -108.903,45.1 -40.32,0 -80.39,-16.59 -108.906,-45.1 -28.519,-28.51 -45.109,-68.58 -45.109,-108.909 0,-40.324 16.59,-80.394 45.109,-108.91 28.516,-28.512 68.586,-45.109 108.906,-45.109 40.321,0 80.399,16.597 108.903,45.109 28.519,28.516 45.117,68.586 45.117,108.91 0,40.329 -16.598,80.399 -45.117,108.909" /><path
         id="path28"
         style="fill:#A06D61;fill-opacity:1;fill-rule:nonzero;stroke:none"
         d="m 1388.92,812.68 v 302.2 h 52.91 V 999.051 h 57.94 v 115.829 h 54.09 v -302.2 h -54.09 v 132.695 h -57.94 V 812.68 h -52.91" /><path
         id="path30"
         style="fill:#A06D61;fill-opacity:1;fill-rule:nonzero;stroke:none"
         d="m 614.895,929.574 -58.754,185.306 h 52.8 l 36.172,-117.739 39.977,117.739 h 49.476 L 673.672,935.582 V 812.68 h -58.777 v 116.894" /><path
         id="path32"
         style="fill:#A06D61;fill-opacity:1;fill-rule:nonzero;stroke:none"
         d="m 929.227,812.68 h 47.378 v 227.8 l 40.435,-198.039 h 44.25 l 35.87,201.239 v -231 h 55.55 v 302.2 h -86.1 l -25.36,-143.755 -29.4,143.755 h -82.623 v -302.2" /><path
         id="path34"
         style="fill:#A06D61;fill-opacity:1;fill-rule:nonzero;stroke:none"
         d="m 1647.15,933.375 22.52,135.145 21.85,-135.145 h -44.37 z m 67.97,181.505 h -81.84 l -55.24,-302.2 h 48.98 l 11.73,70.316 h 60.92 l 11.37,-70.316 h 53.94 l -49.86,302.2" /><path
         id="path36"
         style="fill:#A06D61;fill-opacity:1;fill-rule:nonzero;stroke:none"
         d="m 1245.99,933.375 22.53,135.145 21.85,-135.145 h -44.38 z m 67.97,181.505 h -81.83 l -55.24,-302.2 h 48.98 l 11.72,70.316 h 60.92 l 11.37,-70.316 h 53.95 l -49.87,302.2" /><path
         id="path38"
         style="fill:#A06D61;fill-opacity:1;fill-rule:nonzero;stroke:none"
         d="m 786.289,933.375 22.531,135.145 21.852,-135.145 h -44.383 z m 67.984,181.505 h -81.839 l -55.239,-302.2 h 48.989 l 11.718,70.316 h 60.918 l 11.375,-70.316 h 53.942 l -49.864,302.2" /></g></g></svg>